<svg width="32" height="35" viewBox="0 0 32 35" fill="none" xmlns="http://www.w3.org/2000/svg">
<path d="M4.97106 35V29.768C7.33906 29.768 9.19506 29.336 10.5391 28.472C11.8831 27.576 12.6671 26.008 12.8911 23.768C12.4751 24.152 11.7711 24.472 10.7791 24.728C9.78706 24.984 8.84306 25.112 7.94706 25.112C5.80306 25.112 4.10706 24.536 2.85906 23.384C1.61106 22.232 0.987063 20.696 0.987063 18.776C0.987063 16.696 2.07506 14.664 4.25106 12.68C6.42706 10.664 8.49106 8.568 10.4431 6.392C12.4271 4.184 13.9471 2.12 15.0031 0.199999H17.0191C17.7551 1.576 18.7951 3.112 20.1391 4.808C21.5151 6.472 23.2111 8.28 25.2271 10.232L27.3871 12.296C28.6671 13.48 29.5951 14.584 30.1711 15.608C30.7471 16.632 31.0351 17.688 31.0351 18.776C31.0351 20.696 30.4111 22.232 29.1631 23.384C27.9471 24.536 26.2511 25.112 24.0751 25.112C23.2111 25.112 22.2831 24.984 21.2911 24.728C20.2991 24.472 19.5791 24.152 19.1311 23.768C19.3231 25.88 20.0751 27.416 21.3871 28.376C22.6991 29.304 24.5871 29.768 27.0511 29.768V35H4.97106ZM7.17906 32.984H24.8431V31.688C19.4351 31.688 16.7311 27.848 16.7311 20.168L17.9311 20.024C19.1791 21.816 21.2591 22.712 24.1711 22.712C25.3871 22.712 26.3791 22.344 27.1471 21.608C27.9471 20.84 28.3471 19.896 28.3471 18.776C28.3471 17.24 27.4031 15.592 25.5151 13.832C24.2031 12.616 22.9071 11.4 21.6271 10.184C20.3471 8.936 19.2111 7.72 18.2191 6.536C17.2271 5.352 16.4911 4.248 16.0111 3.224C15.5311 4.28 14.7791 5.416 13.7551 6.632C12.7311 7.816 11.5791 9.032 10.2991 10.28C9.01906 11.496 7.75506 12.696 6.50706 13.88C4.61906 15.672 3.67506 17.304 3.67506 18.776C3.67506 19.896 4.05906 20.84 4.82706 21.608C5.62706 22.344 6.63506 22.712 7.85106 22.712C10.7631 22.712 12.8431 21.816 14.0911 20.024L15.2911 20.168C15.2911 27.848 12.5871 31.688 7.17906 31.688V32.984Z" fill="#034C29"/>
</svg>
