<svg xmlns="http://www.w3.org/2000/svg" fill="none" viewBox="0 0 24 24" height="24" width="24">
<circle stroke="#383C43" fill="white" r="12" cy="12" cx="12"></circle>
<path fill="#8A92B2" d="M12.0216 4.87797V4.88506C12.0287 4.92053 12.0287 4.96309 12.0287 5.00565V10.1201C12.0216 10.1485 12.0003 10.1556 11.979 10.1698C11.83 10.2407 11.6882 10.3046 11.5392 10.3684C11.3335 10.4606 11.1207 10.5599 10.915 10.6522L10.1701 10.9926C9.96443 11.0849 9.75871 11.1771 9.56009 11.2693C9.31891 11.3828 9.07063 11.4892 8.82945 11.6027C8.62374 11.6949 8.41802 11.7942 8.20522 11.8864C8.03497 11.9645 7.86472 12.0354 7.70157 12.1134C7.68738 12.1205 7.6732 12.1276 7.65901 12.1276C7.65191 12.1276 7.65191 12.1276 7.64482 12.1205L7.83635 11.8013C8.20522 11.1913 8.56699 10.5883 8.93586 9.97827C9.326 9.32565 9.72324 8.67304 10.1134 8.02043C10.4752 7.41748 10.844 6.81452 11.2058 6.21157C11.4683 5.77176 11.7378 5.33196 12.0003 4.89216C12.0074 4.87797 12.0145 4.87088 12.0145 4.85669H12.0216C12.0145 4.86378 12.0216 4.87088 12.0216 4.87797Z"></path>
<path fill="#454A75" d="M16.3768 12.1205L16.3838 12.1276L15.3411 12.7447L12.0638 14.6813C12.0497 14.6883 12.0355 14.6954 12.0284 14.7025C12.0071 14.7025 12.0071 14.6813 12.0071 14.6742V14.6103V10.2265C12.0071 10.2052 12.0071 10.1768 12.0142 10.1555C12.0213 10.1272 12.0426 10.1343 12.0638 10.1414C12.1561 10.1839 12.2554 10.2265 12.3476 10.269C12.6242 10.3967 12.9009 10.5244 13.1775 10.645C13.4187 10.7514 13.6528 10.8649 13.894 10.9713C14.1352 11.0777 14.3764 11.1912 14.6175 11.2976C14.8233 11.3898 15.0361 11.4891 15.2418 11.5814C15.4475 11.6736 15.6603 11.7729 15.866 11.8651C16.0292 11.936 16.1923 12.0141 16.3555 12.085C16.3555 12.1063 16.3626 12.1134 16.3768 12.1205Z"></path>
<path fill="#8A92B2" d="M12.0213 19.1079C12.0213 19.115 12.0142 19.1221 12.0142 19.1292H12.0071C12.0071 19.115 11.9929 19.1079 11.9858 19.0937C11.546 18.4766 11.1062 17.8523 10.6664 17.2352C10.2195 16.6038 9.7655 15.9654 9.3186 15.3341C8.8859 14.724 8.44609 14.1069 8.01338 13.4969C7.89989 13.3337 7.78639 13.1776 7.67289 13.0145C7.6658 13.0003 7.6587 12.9932 7.64452 12.9719C7.6658 12.9719 7.67998 12.9861 7.68708 12.9932C8.30422 13.355 8.91427 13.7168 9.53141 14.0785C10.2408 14.497 10.943 14.9156 11.6524 15.3341L12.0142 15.5469C12.0284 15.5611 12.0284 15.5753 12.0284 15.5895V19.0086C12.0284 19.044 12.0284 19.0795 12.0213 19.1079Z"></path>
<path fill="#62688F" d="M7.63744 12.1347V12.1276C7.86443 12.0283 8.08433 11.9219 8.31133 11.8226C8.60216 11.6878 8.893 11.5601 9.18384 11.4253C9.40374 11.326 9.63074 11.2196 9.85064 11.1203C10.1769 10.9713 10.4962 10.8294 10.8225 10.6805C11.0424 10.5812 11.2623 10.4819 11.4893 10.3755C11.6453 10.3045 11.8085 10.2336 11.9645 10.1627C11.9787 10.1556 12 10.1485 12.0071 10.1343C12.0142 10.1343 12.0142 10.1414 12.0071 10.1485V14.6529C12.0071 14.6742 12 14.6955 12.0142 14.7096C12 14.7309 11.9858 14.7096 11.9787 14.7026C11.9149 14.6671 11.851 14.6316 11.7872 14.5891C10.4181 13.7804 9.04197 12.9646 7.6729 12.156C7.66581 12.1489 7.65162 12.1418 7.63744 12.1347Z"></path>
<path fill="#62688F" d="M16.3626 12.9719H16.3697C16.3697 12.9861 16.3555 13.0003 16.3484 13.0145C15.0432 14.8517 13.7379 16.6961 12.4327 18.5333C12.2979 18.7248 12.1561 18.9164 12.0213 19.1079C12.0142 19.1008 12.0142 19.0937 12.0142 19.0866V19.044V15.6036V15.5398C12.3121 15.3625 12.603 15.1922 12.9009 15.0149C14.0501 14.3339 15.1992 13.66 16.3413 12.979C16.3484 12.9861 16.3555 12.979 16.3626 12.9719Z"></path>
<path fill="#62688F" d="M12.0142 10.1485V10.1343V10.0917V4.94176C12.0142 4.92048 12.0071 4.90629 12.0213 4.88501C13.4613 7.27555 14.9013 9.659 16.3342 12.0495C16.3484 12.0708 16.3697 12.0992 16.3767 12.1276C16.2774 12.0921 16.1852 12.0424 16.093 11.9999C15.9795 11.9502 15.8589 11.8935 15.7454 11.8438C15.6745 11.8084 15.5965 11.78 15.5255 11.7445C15.4049 11.6878 15.2843 11.6381 15.1637 11.5814C15.0928 11.553 15.0219 11.5175 14.9509 11.4821L14.4828 11.2692C14.4047 11.2338 14.3267 11.1983 14.2416 11.1628L13.9011 11.0139C13.8301 10.9855 13.7592 10.95 13.6883 10.9146L13.2201 10.7018C13.1421 10.6663 13.064 10.6308 12.9789 10.5954L12.6384 10.4464C12.5604 10.4109 12.4895 10.3755 12.4114 10.34C12.2767 10.2761 12.1419 10.2123 12 10.1556C12.0213 10.1485 12.0142 10.1485 12.0142 10.1485Z"></path>
</svg>